<?xml version="1.0" standalone="no"?>
<!DOCTYPE svg PUBLIC "-//W3C//DTD SVG 20010904//EN"
 "http://www.w3.org/TR/2001/REC-SVG-20010904/DTD/svg10.dtd">
<svg version="1.0" xmlns="http://www.w3.org/2000/svg"
 width="512.000000pt" height="512.000000pt" viewBox="0 0 512.000000 512.000000"
 preserveAspectRatio="xMidYMid meet">
<metadata>
Created by potrace 1.14, written by Peter Selinger 2001-2017
</metadata>
<g transform="translate(0.000000,512.000000) scale(0.100000,-0.100000)"
fill="#000000" stroke="none">
<path d="M430 5113 c-180 -30 -335 -161 -402 -339 l-23 -59 -3 -2129 c-2
-1890 -1 -2136 13 -2190 25 -100 63 -166 139 -242 80 -79 163 -125 260 -143
84 -15 4208 -15 4292 0 168 31 321 163 386 335 l23 59 0 2150 c0 2071 -1 2152
-19 2205 -52 154 -168 274 -322 332 l-59 23 -2130 1 c-1172 1 -2141 -1 -2155
-3z m447 -1827 c131 -35 231 -117 286 -233 29 -63 31 -76 31 -168 -1 -191 -58
-280 -442 -690 l-141 -150 305 -3 304 -2 0 -105 0 -105 -470 0 -470 0 0 80 0
79 228 249 c459 501 466 512 467 643 0 66 -3 81 -28 118 -39 59 -115 93 -202
93 -141 -1 -235 -90 -235 -224 l0 -38 -111 0 -112 0 6 75 c13 178 143 332 318
379 69 19 199 20 266 2z m1179 0 c171 -45 297 -193 353 -412 47 -183 47 -441
1 -634 -66 -272 -240 -430 -474 -430 -304 0 -484 222 -515 634 -33 444 112
768 378 842 62 17 194 17 257 0z m2431 0 c85 -23 144 -56 204 -115 63 -64 94
-122 110 -206 23 -127 -35 -286 -129 -350 l-33 -23 34 -21 c139 -86 215 -278
173 -436 -50 -191 -213 -308 -446 -322 -271 -16 -476 103 -536 312 -31 110 -5
252 65 347 30 41 98 102 124 111 7 2 -8 22 -33 45 -82 72 -129 205 -116 322
18 152 145 291 307 334 69 19 209 20 276 2z m-997 -486 l0 -480 95 0 95 0 0
-105 0 -105 -95 0 -95 0 0 -140 0 -140 -110 0 -110 0 0 140 0 140 -330 0 -330
0 0 89 0 89 313 496 312 496 128 0 127 0 0 -480z"/>
<path d="M1915 3094 c-5 -1 -27 -5 -47 -8 -53 -9 -128 -81 -161 -153 -45 -100
-58 -169 -64 -328 -13 -358 82 -566 266 -582 140 -13 236 78 287 272 15 56 19
107 19 260 0 167 -3 199 -23 268 -39 135 -87 209 -162 246 -34 18 -95 31 -115
25z"/>
<path d="M4302 3089 c-110 -15 -172 -87 -172 -201 0 -80 28 -132 90 -170 120
-74 297 -28 346 89 18 41 18 124 0 166 -35 86 -143 133 -264 116z"/>
<path d="M4287 2470 c-52 -9 -120 -45 -154 -82 -72 -77 -70 -235 3 -299 11 -9
39 -27 64 -40 39 -20 60 -24 150 -24 95 0 110 3 163 28 77 38 110 87 115 171
4 75 -13 121 -67 175 -59 59 -173 89 -274 71z"/>
<path d="M3076 2646 c-102 -161 -188 -301 -192 -310 -6 -14 12 -16 190 -16
l196 0 0 310 c0 171 -2 310 -4 310 -2 0 -88 -132 -190 -294z"/>
</g>
</svg>
